# xmcd
#
# Track frame offsets:
#	150
#	22834
#	44194
#	67249
#	85231
#	102968
#	124663
#	142782
#	159536
#	178950
#	201133
#
# Disc length: 2912 seconds
#
# Revision: 0
# Processed by: cddbd v1.5.2PL0 Copyright (c) Steve Scherf et al.
# Submitted via: EasyCDDAExtractor 15.3.0.1
#
DISCID=9a0b5e0b
DTITLE=Lu - Album
DYEAR=2006
DGENRE=Latin
TTITLE0=Enamorarme De Ti
TTITLE1=La Vida Despues De Ti
TTITLE2=Si Tu Me Quisieras
TTITLE3=Piensalo Bien
TTITLE4=Tu
TTITLE5=Te Voy A Extrañar
TTITLE6=Voy A Llorar
TTITLE7=Sin Un Adios
TTITLE8=Maria
TTITLE9=Maldita Estupidez
TTITLE10=Vida Hay Que Vivir
EXTD=
EXTT0=
EXTT1=
EXTT2=
EXTT3=
EXTT4=
EXTT5=
EXTT6=
EXTT7=
EXTT8=
EXTT9=
EXTT10=
PLAYORDER=
